<?xml version="1.0"?>
<svg xmlns="http://www.w3.org/2000/svg" xmlns:xlink="http://www.w3.org/1999/xlink" xmlns:svgjs="http://svgjs.com/svgjs" version="1.1" width="512" height="512" x="0" y="0" viewBox="0 0 512 512" style="enable-background:new 0 0 512 512" xml:space="preserve"><g><path xmlns="http://www.w3.org/2000/svg" d="m362 61h-121v180h-61c0-49.628906-40.371094-90-90-90s-90 40.371094-90 90v30h241v180h121v61h150v-151h-150v60h-91v-150h91v60h150v-150h-150v60h-91v-150h91v60h150v-151h-150zm40.605469 349.394531 19.394531 19.394531 49.394531-49.394531 21.210938 21.210938-70.605469 70.605469-40.605469-40.605469zm0-180 19.394531 19.394531 49.394531-49.394531 21.210938 21.210938-70.605469 70.605469-40.605469-40.605469zm0-180 19.394531 19.394531 49.394531-49.394531 21.210938 21.210938-70.605469 70.605469-40.605469-40.605469zm0 0" fill="#2b1058" data-original="#000000" style=""/><path xmlns="http://www.w3.org/2000/svg" d="m135 76c0 24.851562-20.148438 45-45 45s-45-20.148438-45-45 20.148438-45 45-45 45 20.148438 45 45zm0 0" fill="#2b1058" data-original="#000000" style=""/></g></svg>
