<?xml version="1.0"?>
<svg xmlns="http://www.w3.org/2000/svg" xmlns:xlink="http://www.w3.org/1999/xlink" xmlns:svgjs="http://svgjs.com/svgjs" version="1.1" width="512" height="512" x="0" y="0" viewBox="0 0 24 24" style="enable-background:new 0 0 512 512" xml:space="preserve" class=""><g><path xmlns="http://www.w3.org/2000/svg" d="m12 6c-3.309 0-6 2.691-6 6s2.691 6 6 6 6-2.691 6-6-2.691-6-6-6zm3.233 4.931-3.25 3.5c-.388.417-1.042.425-1.44.026l-1.75-1.75c-.391-.391-.391-1.023 0-1.414s1.023-.391 1.414 0l1.016 1.016 2.544-2.74c.376-.405 1.009-.428 1.414-.052.404.376.427 1.009.052 1.414z" fill="#2b1058" data-original="#000000" style="" class=""/><path xmlns="http://www.w3.org/2000/svg" d="m1.5 12c0-5.789 4.71-10.5 10.5-10.5 2.079 0 4.055.607 5.732 1.707l-1.512 1.513c-.472.47-.139 1.28.53 1.28h4.5c.414 0 .75-.336.75-.75v-4.5c0-.665-.806-1.004-1.28-.53l-1.914 1.914c-1.971-1.369-4.322-2.134-6.806-2.134-6.617 0-12 5.383-12 12 0 1.173.173 2.339.513 3.466.119.395.534.621.935.502.396-.12.621-.538.501-.935-.298-.987-.449-2.007-.449-3.033z" fill="#2b1058" data-original="#000000" style="" class=""/><path xmlns="http://www.w3.org/2000/svg" d="m23.487 8.534c-.12-.397-.535-.623-.935-.502-.396.12-.621.538-.501.935.298.987.449 2.007.449 3.033 0 5.789-4.71 10.5-10.5 10.5-2.075 0-4.048-.604-5.722-1.7l1.505-1.522c.468-.474.132-1.278-.533-1.278h-4.5c-.2 0-.393.08-.533.223s-.219.335-.217.535l.05 4.5c.006.666.819.99 1.283.519l1.878-1.899c1.967 1.362 4.312 2.122 6.789 2.122 6.617 0 12-5.383 12-12 0-1.173-.173-2.339-.513-3.466z" fill="#2b1058" data-original="#000000" style="" class=""/></g></svg>
