<svg id="_x31__x2C_5" enable-background="new 0 0 36 36" height="512" viewBox="0 0 36 36" width="512" xmlns="http://www.w3.org/2000/svg"><path d="m4.167 27.623c0-6.917-3.583-11.667-3.583-15s1.916-10.333 17.249-10.333 17.583 9.417 17.583 13.083c.001 17.167-31.249 24.5-31.249 12.25z" fill="#efefef"/><path d="m5.5 6c-.827 0-1.5-.673-1.5-1.5s.673-1.5 1.5-1.5 1.5.673 1.5 1.5-.673 1.5-1.5 1.5zm0-2c-.276 0-.5.224-.5.5s.224.5.5.5.5-.224.5-.5-.224-.5-.5-.5z" fill="#a4afc1"/><path d="m28.25 10.75c.552 0 1 .448 1 1v11.5h-22.5v-11.5c0-.552.448-1 1-1z" fill="#f3f3f1"/><path d="m6.75 23.25h22.5v2c0 .55-.45 1-1 1h-20.5c-.55 0-1-.45-1-1z" fill="#2fdf84"/><path d="m20 26.25s0 1.5 1.5 3h-7c1.5-1.5 1.48-3 1.48-3z" fill="#2fdf84"/><path d="m9 25.25v-2h-2.25v2c0 .55.45 1 1 1h2.25c-.55 0-1-.45-1-1z" fill="#00b871"/><path d="m15.98 26.25s.02 1.5-1.48 3h2.25c1.5-1.5 1.48-3 1.48-3z" fill="#00b871"/><path d="m10 10.75h-2.25c-.552 0-1 .448-1 1v11.5h2.25v-11.5c0-.552.448-1 1-1z" fill="#d5dbe1"/><path d="m15.5 13.311-2.28-2.28c-.293-.293-.293-.768 0-1.061l2.28-2.28 1.061 1.061-1.75 1.75 1.75 1.75z"/><path d="m13.75 9.75h9.25v1.5h-9.25z"/><path d="m20.5 18.311-1.061-1.061 1.75-1.75-1.75-1.75 1.061-1.061 2.28 2.28c.293.293.293.768 0 1.061z"/><path d="m13 14.75h9.25v1.5h-9.25z"/><path d="m28.25 27h-20.5c-.965 0-1.75-.785-1.75-1.75v-13.5c0-.965.785-1.75 1.75-1.75h2.5v1.5h-2.5c-.138 0-.25.112-.25.25v13.5c0 .138.112.25.25.25h20.5c.138 0 .25-.112.25-.25v-13.5c0-.138-.112-.25-.25-.25h-2.5v-1.5h2.5c.965 0 1.75.785 1.75 1.75v13.5c0 .965-.785 1.75-1.75 1.75z"/><path d="m6.75 22h22.5v1.5h-22.5z"/><path d="m21.25 30h-6.5c-.303 0-.577-.183-.693-.463s-.052-.603.163-.817c1.041-1.041 1.265-2.552 1.267-2.567l1.487.195c-.008.059-.147 1.066-.744 2.152h3.523c-.591-1.081-.738-2.088-.746-2.147l1.485-.208c.002.015.221 1.458 1.184 2.489.196.135.324.36.324.616 0 .414-.336.75-.75.75z"/></svg>