<svg height="453pt" viewBox="0 -28 453.99891 453" width="453pt" xmlns="http://www.w3.org/2000/svg"><path d="m444 115.648438-105.679688 106.210937v-64.257813c-16.460937-2.652343-82.308593-7.429687-131.160156 73.820313l-6.378906 10.617187-2.121094-12.21875c0-.53125-13.808594-76.46875 50.980469-130.101562 1.070313-1.070312 28.628906-26.46875 88.679687-26.019531v-63.199219zm0 0" fill="#00efd1"/><g fill="#083863"><path d="m345.371094 3.410156c-2.863282-2.847656-7.160156-3.695312-10.890625-2.144531s-6.160157 5.195313-6.160157 9.234375v53.359375c-54.015624 2.15625-81.058593 24.546875-85.191406 28.269531-27.25 22.363282-45.855468 53.523438-52.613281 88.121094-3.378906 16.714844-3.980469 33.867188-1.785156 50.777344l.007812.058594c.019531.148437.042969.300781.070313.445312l2.117187 12.21875c.714844 4.117188 3.914063 7.351562 8.019531 8.121094 4.105469.765625 8.253907-1.101563 10.40625-4.679688l6.378907-10.617187c19.558593-32.53125 43.9375-54.09375 72.460937-64.089844 12.867188-4.550781 26.496094-6.546875 40.128906-5.882813v55.257813c0 4.050781 2.441407 7.699219 6.183594 9.246094 3.742188 1.542969 8.046875.679687 10.902344-2.191407l105.683594-106.210937c3.894531-3.914063 3.878906-10.246094-.039063-14.140625zm2.949218 194.222656v-40.03125c0-4.910156-3.5625-9.09375-8.410156-9.875-8.558594-1.378906-31.375-3.5625-58.332031 5.882813-28.769531 10.085937-53.65625 29.917969-74.148437 59.058594-.058594-9.578125.847656-19.140625 2.707031-28.535157 6.078125-30.734374 21.515625-56.542968 45.878906-76.710937.214844-.175781.421875-.359375.617187-.554687.726563-.667969 26.132813-23.570313 81.613282-23.167969 2.664062.019531 5.226562-1.023438 7.121094-2.902344 1.890624-1.875 2.953124-4.429687 2.953124-7.097656v-39.140625l81.539063 81.128906zm0 0"/><path d="m417.351562 294.949219c-5.523437 0-10 4.476562-10 10v42.269531c-.019531 16.5625-13.441406 29.984375-30 30h-327.351562c-16.5625-.015625-29.980469-13.4375-30-30v-238.25c.019531-16.558594 13.4375-29.980469 30-30h69.160156c5.523438 0 10-4.476562 10-10 0-5.519531-4.476562-10-10-10h-69.160156c-27.601562.03125-49.96875 22.402344-50 50v238.25c.03125 27.601562 22.398438 49.96875 50 50h327.351562c27.601563-.03125 49.96875-22.398438 50-50v-42.269531c0-5.523438-4.480468-10-10-10zm0 0"/></g></svg>